# xmcd
#
# Track frame offsets:
#	150
#	15730
#	33989
#	48577
#	62778
#	80462
#	102280
#	122716
#	138735
#	157280
#	174872
#	188748
#	215484
#	235655
#	252395
#
# Disc length: 3624 seconds
#
# Revision: 1
# Processed by: cddbd v1.5.2PL0 Copyright (c) Steve Scherf et al.
# Submitted via: audiograbber 1.83.01
#
DISCID=d10e260f
DTITLE=Nicole - Queen of chanson melody
DYEAR=2008
DGENRE=Chanson
TTITLE0=Never look back
TTITLE1=Whether
TTITLE2=Questioning about love
TTITLE3=Orchids, I love you
TTITLE4=Love affected
TTITLE5=Never stop missing you
TTITLE6=Her shadow
TTITLE7=Passional desert
TTITLE8=So long, my love
TTITLE9=By the feet of a Banyan
TTITLE10=The love tales of Li-Shan
TTITLE11=The cloud of home town
TTITLE12=Look back again
TTITLE13=Tales of small town
TTITLE14=Fall in love with never homebound guy
EXTD=
EXTT0=
EXTT1=
EXTT2=
EXTT3=
EXTT4=
EXTT5=
EXTT6=
EXTT7=
EXTT8=
EXTT9=
EXTT10=
EXTT11=
EXTT12=
EXTT13=
EXTT14=
PLAYORDER=
